<!DOCTYPE svg PUBLIC "-//W3C//DTD SVG 20010904//EN" "http://www.w3.org/TR/2001/REC-SVG-20010904/DTD/svg10.dtd">
<svg version="1.0" xmlns="http://www.w3.org/2000/svg" width="500px" height="500px" viewBox="0 0 5000 5000" preserveAspectRatio="xMidYMid meet">
<g id="layer101" fill="#000000" stroke="none">
</g>
<g id="layer102" fill="#0e507a" stroke="none">
<path d="M2600 3131 c40 -70 149 -190 245 -268 221 -180 587 -341 1021 -448 104 -25 212 -53 239 -60 28 -8 67 -17 88 -21 29 -5 36 -10 32 -23 -3 -9 -20 -82 -39 -161 -19 -80 -38 -156 -44 -170 -5 -14 -35 -133 -66 -265 -31 -132 -60 -247 -65 -255 -9 -16 -55 -16 -96 0 -19 7 -24 4 -33 -28 -6 -20 -10 -37 -8 -39 2 -2 53 -12 114 -21 l112 -18 11 35 c5 20 14 45 19 56 13 30 33 100 91 310 28 104 56 196 60 205 17 28 129 454 121 461 -4 3 -65 14 -137 24 -105 14 -292 49 -375 70 -8 2 -46 11 -85 20 -217 50 -534 160 -690 237 -183 91 -373 226 -477 337 -60 64 -61 65 -38 22z"/>
<path d="M2324 3072 c-175 -168 -483 -337 -804 -440 -212 -68 -614 -156 -836 -183 l-101 -13 18 -60 c10 -34 41 -149 70 -256 28 -107 55 -199 59 -205 4 -5 19 -57 35 -115 67 -255 107 -396 116 -416 11 -22 2 -22 207 12 29 4 32 7 26 32 -10 41 -18 45 -67 34 -25 -5 -51 -6 -57 -2 -7 4 -34 104 -61 221 -27 118 -56 232 -64 254 -8 22 -30 112 -50 200 -19 88 -38 169 -41 181 -6 23 1 26 261 84 606 137 1056 353 1278 614 53 63 105 137 95 136 -2 -1 -39 -36 -84 -78z"/>
<path d="M2421 3066 c-22 -41 -45 -77 -50 -80 -5 -3 -39 -48 -75 -99 -125 -177 -337 -372 -531 -489 -209 -126 -473 -221 -693 -248 -47 -6 -88 -13 -91 -15 -5 -5 35 -160 49 -190 5 -11 36 -128 69 -260 33 -132 69 -265 79 -295 10 -30 34 -115 52 -189 l33 -134 81 7 c338 28 730 215 1088 519 l65 55 64 -55 c264 -225 543 -389 804 -473 114 -37 212 -57 294 -62 l65 -3 52 195 c29 107 59 217 68 245 9 27 39 137 67 245 28 107 64 237 80 288 16 51 29 94 29 96 0 2 -37 9 -82 15 -220 32 -464 113 -632 211 -37 22 -70 40 -72 40 -11 0 -160 110 -232 172 -144 123 -316 328 -416 494 -50 82 -45 61 14 -59 140 -288 337 -509 622 -700 130 -87 241 -142 443 -222 94 -37 171 -68 173 -70 7 -6 -209 -839 -220 -851 -4 -3 -36 -1 -70 5 -256 48 -628 232 -931 463 l-81 62 67 62 c37 34 67 64 67 67 0 2 -10 7 -22 11 -17 4 -28 -2 -44 -21 l-21 -27 -14 37 c-12 34 -16 37 -52 37 -44 0 -42 12 9 36 37 18 38 21 17 88 -4 14 -1 17 9 14 11 -5 14 9 17 63 1 41 -2 69 -8 69 -5 0 -11 10 -13 22 -4 28 -28 36 -28 9 0 -23 -47 -71 -70 -71 -54 0 -81 74 -38 104 12 9 17 16 11 16 -6 0 -16 -7 -23 -15 -7 -9 -21 -13 -34 -9 -15 3 -34 -5 -60 -25 -21 -17 -43 -31 -47 -31 -5 0 -9 -12 -9 -26 0 -19 -4 -25 -15 -20 -8 3 -15 1 -15 -4 0 -6 -7 -10 -15 -10 -48 0 33 97 113 135 23 11 42 26 42 33 0 6 8 12 19 12 44 0 111 88 111 147 0 21 -37 113 -57 142 -2 3 -14 -6 -28 -19 -13 -13 -31 -20 -39 -17 -19 8 -30 49 -22 82 7 26 31 34 39 13 4 -10 7 -10 18 0 28 26 65 14 113 -38 26 -28 49 -50 51 -50 3 0 11 13 20 30 14 27 14 32 -5 67 -11 21 -20 45 -20 54 0 13 -6 16 -22 11 -20 -5 -21 -3 -15 46 l6 52 -49 0 c-48 0 -49 -1 -117 -77 -146 -166 -196 -243 -238 -368 -23 -67 -26 -90 -21 -145 10 -111 54 -185 205 -341 99 -102 127 -137 118 -145 -29 -27 -252 -178 -358 -243 -251 -152 -489 -252 -633 -267 -61 -6 -65 -5 -81 19 -9 14 -14 30 -11 35 3 4 -4 42 -15 83 -22 80 -54 205 -125 484 -25 99 -47 190 -50 201 -5 19 1 24 48 39 407 133 741 343 963 605 72 86 179 240 216 313 32 62 88 187 84 187 -2 0 -22 -33 -44 -74z"/>
<path d="M2587 2735 c-3 -7 -3 -15 1 -17 4 -2 22 -20 40 -41 30 -35 32 -43 32 -110 0 -49 -8 -97 -25 -152 -26 -80 -44 -243 -45 -401 0 -84 13 -96 67 -63 44 27 51 19 23 -26 -21 -34 -21 -37 -5 -61 9 -14 20 -24 25 -22 6 2 38 35 73 75 84 95 119 168 125 258 4 61 0 81 -28 153 -35 91 -118 223 -215 343 -42 52 -65 74 -68 64z"/>
</g>
<g id="layer103" fill="#a32f3c" stroke="none">
<path d="M493 3786 c-18 -8 -34 -16 -35 -18 -1 -2 -5 -109 -8 -238 l-5 -235 -43 1 c-56 1 -96 30 -100 73 -4 37 19 51 51 32 16 -11 22 -10 35 3 14 13 13 17 -2 40 -34 53 -107 39 -121 -24 -11 -49 21 -100 79 -129 41 -21 68 -26 162 -29 142 -6 196 2 234 34 55 47 48 139 -15 180 l-26 17 39 17 c58 26 82 63 82 125 0 62 -27 108 -80 139 -45 27 -199 34 -247 12z m166 -32 c36 -30 55 -89 45 -142 -8 -43 -62 -102 -93 -102 -28 0 -27 -18 0 -22 57 -8 84 -119 43 -175 -25 -34 -63 -42 -81 -17 -21 28 -18 432 3 462 20 29 45 28 83 -4z"/>
<path d="M912 3793 c-19 -7 -42 -58 -42 -92 0 -43 40 -84 114 -115 50 -21 67 -34 74 -56 16 -45 -5 -74 -54 -78 -55 -4 -77 19 -43 47 20 16 22 21 10 35 -30 36 -80 1 -67 -47 18 -71 178 -86 242 -22 23 23 24 30 24 160 0 122 2 135 18 135 14 1 13 4 -7 20 -39 33 -99 22 -113 -22 -3 -9 -15 -4 -37 15 -31 26 -83 35 -119 20z m146 -132 c3 -69 2 -71 -21 -71 -38 0 -62 35 -62 92 0 38 5 53 19 64 17 12 23 12 40 0 17 -11 22 -26 24 -85z"/>
<path d="M1292 3788 c-8 -8 -12 -60 -12 -169 0 -112 -3 -158 -12 -161 -20 -7 1 -27 36 -34 42 -7 74 9 82 41 l6 25 39 -35 c22 -19 43 -35 48 -35 30 0 41 14 41 51 l0 39 -25 -16 c-23 -15 -27 -15 -62 3 l-38 20 -3 128 c-1 74 -7 134 -14 142 -13 16 -70 17 -86 1z"/>
<path d="M1633 3784 c-20 -10 -40 -32 -53 -58 -18 -38 -20 -62 -20 -244 0 -171 -2 -204 -15 -208 -26 -10 -17 -23 25 -35 33 -10 43 -9 65 5 24 16 25 21 25 112 0 88 2 95 18 89 61 -26 89 -28 122 -9 58 34 75 66 78 152 3 65 0 84 -20 122 -31 61 -77 90 -142 90 -28 0 -65 -8 -83 -16z m116 -28 c21 -25 32 -131 22 -197 -15 -91 -55 -124 -96 -79 -15 17 -17 34 -13 129 3 80 9 116 21 135 19 29 48 34 66 12z"/>
<path d="M1972 3793 c-19 -7 -42 -58 -42 -92 0 -43 40 -84 114 -115 50 -21 67 -34 74 -56 16 -45 -5 -74 -54 -78 -55 -4 -77 19 -43 47 20 16 22 21 10 35 -30 36 -80 1 -67 -47 18 -71 178 -86 242 -22 23 23 24 30 24 160 0 122 2 135 18 135 14 1 13 4 -7 20 -39 33 -99 22 -113 -22 -3 -9 -15 -4 -37 15 -31 26 -83 35 -119 20z m146 -132 c3 -69 2 -71 -21 -71 -38 0 -62 35 -62 92 0 38 5 53 19 64 17 12 23 12 40 0 17 -11 22 -26 24 -85z"/>
<path d="M2352 3788 c-8 -8 -12 -60 -12 -169 0 -112 -3 -158 -12 -161 -20 -7 1 -27 36 -34 42 -7 74 9 82 41 l6 25 39 -35 c22 -19 43 -35 48 -35 30 0 41 14 41 51 l0 39 -25 -16 c-23 -15 -27 -15 -62 3 l-38 20 -3 128 c-1 74 -7 134 -14 142 -13 16 -70 17 -86 1z"/>
<path d="M2642 3793 c-19 -7 -42 -58 -42 -92 0 -43 40 -84 114 -115 50 -21 67 -34 74 -56 16 -45 -5 -74 -54 -78 -55 -4 -77 19 -43 47 20 16 22 21 10 35 -30 36 -80 1 -67 -47 18 -71 178 -86 242 -22 23 23 24 30 24 160 0 122 2 135 18 135 14 1 13 4 -7 20 -39 33 -99 22 -113 -22 -3 -9 -15 -4 -37 15 -31 26 -83 35 -119 20z m146 -132 c3 -69 2 -71 -21 -71 -38 0 -62 35 -62 92 0 38 5 53 19 64 17 12 23 12 40 0 17 -11 22 -26 24 -85z"/>
</g>
<g id="layer104" fill="#0b76c0" stroke="none">
<path d="M2615 3115 c11 -9 18 -18 16 -22 -6 -8 70 -101 126 -154 60 -57 201 -169 213 -169 5 0 28 -13 52 -29 183 -123 637 -288 1020 -371 61 -13 170 -40 188 -46 10 -3 11 -7 3 -12 -6 -4 -27 -74 -47 -157 -20 -82 -54 -217 -76 -300 -22 -82 -38 -155 -36 -161 3 -6 1 -15 -4 -20 -4 -5 -18 -54 -30 -109 -13 -55 -27 -105 -32 -111 -8 -11 -85 -3 -107 10 -4 3 -13 -10 -18 -29 -8 -25 -8 -37 0 -42 6 -3 57 -14 113 -23 l104 -16 11 35 c6 20 14 45 19 56 18 42 30 88 25 95 -3 5 -2 10 3 12 4 1 32 91 61 198 29 107 58 200 63 207 6 7 10 28 11 47 0 20 5 32 11 29 5 -4 7 3 4 15 -3 12 -3 22 2 24 11 5 100 342 92 349 -4 3 -65 14 -137 24 -105 14 -292 49 -375 70 -8 2 -46 11 -85 20 -217 50 -534 160 -690 237 -161 80 -399 243 -453 310 -13 15 -33 33 -45 39 -22 10 -22 10 -2 -6z"/>
<path d="M2332 3075 c-71 -75 -262 -204 -422 -285 -84 -42 -290 -126 -390 -158 -213 -68 -614 -156 -837 -183 -56 -7 -100 -16 -97 -20 2 -4 25 -85 50 -181 25 -95 49 -175 55 -176 5 -2 7 -8 4 -12 -6 -10 22 -129 34 -145 5 -5 20 -57 36 -115 67 -254 107 -396 116 -415 10 -20 13 -20 102 -7 116 17 135 26 129 58 -5 29 -26 36 -75 25 -51 -12 -60 -1 -81 103 -10 47 -23 86 -28 86 -5 0 -6 5 -3 10 7 11 -41 232 -56 262 -5 9 -27 99 -50 200 -22 101 -46 186 -51 189 -30 19 5 30 267 89 473 107 885 277 1115 459 68 54 175 161 210 211 29 41 9 45 -28 5z"/>
</g>
<g id="layer105" fill="#f05559" stroke="none">
<path d="M3983 3960 c-26 -11 -31 -48 -8 -56 9 -4 23 3 33 16 26 32 77 21 134 -29 l43 -39 -34 -103 c-52 -161 -81 -231 -113 -272 -27 -34 -28 -38 -11 -44 36 -14 92 -8 113 13 23 23 70 133 96 223 9 34 20 61 25 61 4 0 18 -30 29 -67 17 -52 21 -88 18 -153 -3 -79 -2 -85 17 -85 18 0 20 8 23 68 7 170 -99 382 -224 445 -48 24 -112 34 -141 22z"/>
<path d="M3152 3787 c-6 -7 -13 -64 -14 -128 l-3 -114 -27 -3 c-38 -4 -36 -22 2 -22 l30 0 0 -120 c0 -66 -3 -120 -7 -120 -28 0 -87 25 -113 46 -51 44 -32 108 25 82 22 -10 28 -9 36 3 12 20 12 24 -9 50 -23 27 -75 30 -100 6 -23 -24 -21 -89 4 -124 11 -15 42 -39 70 -53 46 -23 61 -25 219 -28 123 -2 182 -8 212 -19 52 -19 91 -11 103 23 6 14 10 132 10 263 0 270 -1 274 -65 269 l-40 -3 -3 -254 c-2 -244 -8 -291 -33 -275 -5 3 -9 14 -9 25 0 23 -7 23 -53 4 -20 -8 -59 -15 -87 -15 l-50 0 0 120 0 120 75 0 c43 0 75 4 75 10 0 6 -32 10 -75 10 l-75 0 0 118 c0 78 -4 122 -12 130 -16 16 -73 15 -86 -1z"/>
<path d="M3741 3781 c-54 -29 -81 -83 -81 -166 0 -108 46 -173 135 -189 118 -22 207 76 190 210 -16 130 -138 202 -244 145z m121 -51 c21 -41 25 -178 7 -229 -19 -54 -75 -63 -93 -15 -24 62 -14 236 16 271 19 23 52 11 70 -27z"/>
<path d="M4483 3781 c-53 -33 -76 -90 -71 -181 2 -65 7 -82 31 -113 15 -20 37 -42 49 -48 26 -14 96 -17 120 -5 16 7 17 5 4 -38 -29 -95 -99 -150 -161 -126 -38 14 -43 6 -9 -16 39 -26 119 -24 169 4 82 46 117 134 119 292 1 94 -2 111 -24 154 -34 67 -67 89 -137 93 -45 3 -65 0 -90 -16z m129 -51 c13 -26 18 -60 18 -130 0 -110 -13 -140 -59 -140 -23 0 -31 7 -42 33 -20 47 -17 203 5 245 23 44 54 40 78 -8z"/>
</g>
<g id="layer106" fill="#29a5de" stroke="none">
<path d="M2295 3170 c-10 -16 -165 -103 -235 -132 -301 -126 -632 -178 -1122 -178 -199 0 -575 21 -713 40 -101 14 -98 14 -82 -17 8 -16 40 -107 72 -203 32 -96 62 -180 67 -186 5 -7 38 -103 74 -215 36 -112 69 -207 72 -211 4 -3 48 -4 98 -1 l91 6 -12 41 c-11 38 -15 41 -52 44 l-39 3 -46 152 c-25 84 -64 213 -87 287 -23 74 -41 137 -41 140 0 3 145 5 322 5 412 0 600 19 938 90 239 51 424 123 588 229 68 44 145 116 125 116 -7 0 -14 -4 -18 -10z"/>
<path d="M2700 3160 c31 -59 257 -195 413 -250 96 -33 358 -101 462 -119 252 -43 419 -55 762 -56 248 0 323 -3 323 -12 0 -7 -29 -102 -65 -210 -35 -109 -75 -234 -88 -278 l-23 -80 -39 -5 c-33 -4 -40 -10 -51 -40 -22 -62 -23 -61 78 -58 l92 3 18 45 c10 25 44 122 77 215 32 94 91 259 130 369 40 109 70 200 68 202 -2 2 -82 -3 -178 -12 -282 -25 -778 -30 -999 -9 -393 35 -716 130 -924 269 -40 26 -62 37 -56 26z"/>
</g>


</svg>